<svg xmlns="http://www.w3.org/2000/svg" xml:space="preserve" viewBox="0 0 128 128">
  <defs>
    <filter id="a" width="1.25597" height="1.25857" x="-.12798" y="-.1277" color-interpolation-filters="sRGB">
      <feFlood flood-color="#000" flood-opacity=".58039" result="flood"/>
      <feGaussianBlur in="SourceGraphic" result="blur" stdDeviation="6.81114"/>
      <feOffset in="blur" result="offset"/>
      <feComposite in="flood" in2="offset" operator="in" result="comp1"/>
      <feComposite in="SourceGraphic" in2="comp1" result="comp2"/>
    </filter>
  </defs>
  <path fill="#ed9f61" stroke="#160303" stroke-linecap="round" stroke-linejoin="round" stroke-width=".42331" d="M-6.05255-5.64905h140.62097v138.80521H-6.05255z"/>
  <g filter="url(#a)" transform="translate(9.03035 9.0792) scale(.8586)">
    <path fill="#ff8702" d="M31.02014 31.79585C19.243 36.471 1.52749 58.45441 0 94.99842c0 0 .14555 8.03117 2.20312 14.33203 5.66668 6.49391 20.7894 15.3256 40.37696 17.79492 18.88126 2.38028 43.11333-.44591 58.31445-3.86328 15.20112-3.41737 22.82638-13.27959 23.8164-15.80664.99-2.52705.10795-7.72017-.5586-9.93946-.81185-2.70307-2.0586-6.2777-.39843-11.14843 1.66016-4.87073 5.18739-24.6179-2.31422-38.69751-14.63233-29.48494-60.11079-27.9058-90.41954-15.8742Z"/>
    <path fill="#313131" d="M16.30383 44.51835c-8.80589-20.3688-8.19563-39.9605-6.3062-42.5612 1.48877-2.0492 2.49049-2.55191 4.9323-1.19933C17.81243 2.3545 29.03086 13.3446 43.6994 23.0882 50.04217 27.3014 35.00932 26.04588 43 29c-13.97182.9508-19.48632 7.39556-26.69616 15.51836Z"/>
    <path fill="#ff8702" d="M43 10.99842c3.45959 7.02673 4.49165 8.1239 10 15-9-5-18.46875-2.41992-22.46875-.41992 7.83491 1.48484 8.9627 2.15472 12.46875 3.41992 11.66 4.20768 22.2261 8.91261 32.25683 3.05328 4.90626-2.86593 14.2925-8.8537 9.74707-11.18218-5.97143-3.05897-10.02542-5.62461-14.20312-7.39649.38302 2.69774 1.16738 4.75879 2.08203 7.9375C65.40327 16.44674 57.07395 12.52556 43 10.99843z"/>
    <path fill="#ebdccc" d="M120.45378 3.36895c9.39191.23127 2.51061 28.60362-1.92608 34.58247-4.4367 5.97885-3.14287 16.04735-5.12001 16.64597-2.67456-3.1201-2.6751-9.81109-2.712-15.68546-2.87256 1.29245-7.89878 2.80392-12.31373 1.5465 1.08696-2.97104 2.46924-7.42032 3.58672-10.99447-1.81913.70779-5.9117 1.67307-10.79187 2.27856 4.37463-8.82208 19.88506-28.60484 29.27697-28.37357Z"/>
    <path fill="#313131" d="M122.13476.52148c-.48554-.01611-1.01167.00973-1.58203.08008-9.12567 1.12571-27.91442 8.47532-43.05468 29.4043 2.26813 1.34348 4.77306 2.11626 7.25194 2.3789.89607.034 1.82125-.0117 2.78126-.14257 1.22993-.16768 2.61232-.34608 4.0625-.55274 3.56015-1.20994 6.37458-3.76854 7.27148-7.61914 1.97524-8.48014 6.6454-11.36047 10.22852-14.89062 3.58311-3.53015 12.65922-7.25407 14.22461-4.54102 1.56538 2.71306.27293 16.97534-1.16016 22.25-3.39652 9.43653-9.326 15.19353-8.9668 25.33398.031.87614.0531 1.69589.19727 2.38867.19751.26122.41083.5144.64062.75586 2.82106 2.96445 4.86112-.6832 6.16797-4.0918.39407-1.04624.79516-2.16574 1.24219-3.6035 3.7465-12.04967 5.83458-27.30955 6.0039-34.1172.0829-3.33196 1.9745-12.79146-5.30859-13.0332zM71.13522 61.19657c.02608-6.85606 5.78827-11.6924 11.68401-11.4644 5.64338.21827 10.69233 3.65132 10.71659 10.4452.02532 7.12137-4.81086 11.92527-11.19134 11.98292-5.6864.05136-11.23637-3.84893-11.20926-10.96372z"/>
    <path fill="#fff" d="M78.13945 53.72934c1.92133-1.37284 5.28958-2.31913 7.15138-.01134 1.8618 2.30766.67856 5.62432-2.15162 7.03468-2.89107 1.4407-6.01104 1.61453-7.21455-.8072-1.2035-2.42174.42629-4.93806 2.21479-6.216zm6.42878 11.34256c1.93843-1.01367 3.26516-2.70247 4.5176-1.38674 1.3723 1.44167-.1293 3.80823-2.07824 4.8597-1.94892 1.05148-5.39215 1.22174-5.89595-.53023-.59454-2.06752 1.29875-1.81434 3.45659-2.94273z"/>
    <path fill="none" stroke="#313131" stroke-linecap="round" stroke-width="4.40315" d="M33.65228 80.15316c-1.84571-3.8066-1.87256-7.54518.52767-10.05612 2.40022-2.51095 7.01247-5.05756 9.46573-12.65022"/>
    <path fill="#313131" d="M24.2849 53.85895c.02608-6.85606 5.78826-11.6924 11.684-11.4644 5.64338.21827 10.69233 3.65132 10.71659 10.4452.02532 7.12137-4.81085 11.92527-11.19134 11.98292-5.6864.05136-11.23637-3.84893-11.20925-10.96372z"/>
    <path fill="#fff" d="M31.28912 46.39172c1.92133-1.37284 5.28958-2.31913 7.15138-.01134 1.8618 2.30766.67856 5.62432-2.15161 7.03468-2.89107 1.4407-6.01105 1.61453-7.21455-.8072-1.2035-2.42174.42628-4.93806 2.21478-6.216zm6.42878 11.34256c1.93844-1.01367 3.26517-2.70247 4.5176-1.38674 1.3723 1.44166-.1293 3.80823-2.07823 4.8597-1.94893 1.05148-5.39216 1.22173-5.89596-.53023-.59454-2.06752 1.29875-1.81434 3.45659-2.94273z"/>
    <path fill="#313131" d="M40.34966 72.47315c3.61176-1.97032 14.54862-2.6693 17.07117 2.5758.40334.83865-6.11574 7.14399-10.10687 7.13514-3.85904-.0087-7.87018-9.21675-6.9643-9.71094z"/>
    <path fill="none" stroke="#313131" stroke-linecap="round" stroke-linejoin="round" stroke-width="4.40315" d="M30.32999 85.46643c2.0735 6.37498 4.02058 10.40168 5.95924 12.9405 3.75074-3.13104 8.53897-7.47559 10.43673-9.3738 2.9622 4.81845 7.01735 10.37513 8.67162 12.64569 4.85908-3.8732 9.51886-7.99556 11.43575-10.16287"/>
    <g transform="translate(2.30174 3.58353)">
      <path fill="#fff" fill-opacity=".50279" d="M33.98749 94.8234c.7616-6.28644-5.2406-9.61568-8.65279-12.56571-3.9883-3.44814-1.49053-12.12925.77828-13.56623-.03889 2.9622 5.07684 9.47184 10.70871 10.444 5.39854.93187 19.30912 2.83432 21.821 15.40374.63286 3.1668-9.07892 4.29146-12.34734 4.3554-3.2684.06394-12.8455.3666-12.30786-4.0712z"/>
      <path fill="#fff" d="M45.39226 122.74398c-6.86051.007-14.34014-2.06218-16.05786-10.65403-1.57105-7.85818-2.3006-13.44197 1.09412-16.014 3.39473-2.57202 13.41124-3.4461 16.1393-3.46914 2.94473-.02487 12.4383 1.04296 14.90144 4.18339 2.41648 3.08093 2.94138 8.37234.87296 16.35842-2.07881 8.02621-9.48155 9.33957-16.94996 9.59536z"/>
      <path fill="none" stroke="#fff" stroke-linecap="round" stroke-linejoin="round" stroke-width="3.7" d="M61.2475 114.53016c3.20131.12439 5.16316-3.24345 5.4-5.60233.23684-2.35888-.65527-6.16363-3.2842-6.36968"/>
      <ellipse cx="45.8418" cy="99.57387" fill="#502d16" rx="14.43036" ry="4.81012"/>
    </g>
    <path fill="#ff8702" stroke="#313131" stroke-linecap="round" stroke-width="4.20045" d="M83.64438 107.01831c-8.048-.32941-16.32516-.93068-16.35187 6.72937.12321 4.65744 3.10727 7.76238 6.23674 12.56455"/>
  </g>
</svg>
