<svg xmlns="http://www.w3.org/2000/svg" xml:space="preserve" viewBox="0 0 128 128"><path fill="#ff8702" d="M31.02 31.796C19.243 36.47 1.527 58.454 0 94.998c0 0 .146 8.032 2.203 14.332 5.667 6.494 20.79 15.326 40.377 17.795 18.881 2.38 43.113-.446 58.315-3.863 15.2-3.417 22.826-13.28 23.816-15.807.99-2.527.108-7.72-.559-9.939-.812-2.703-2.058-6.278-.398-11.148 1.66-4.871 5.187-24.618-2.314-38.698-14.633-29.485-60.111-27.906-90.42-15.874Z"/><path fill="#313131" d="M16.304 44.518C7.498 24.15 8.108 4.558 9.998 1.958c1.488-2.05 2.49-2.553 4.932-1.2 2.882 1.596 14.1 12.587 28.77 22.33 6.342 4.213-8.69 2.958-.7 5.912-13.972.95-19.486 7.396-26.696 15.518Z"/><path fill="#ff8702" d="M43 10.998c3.46 7.027 4.492 8.124 10 15-9-5-18.469-2.42-22.469-.42 7.835 1.485 8.963 2.155 12.469 3.42 11.66 4.208 22.226 8.913 32.257 3.054 4.906-2.866 14.292-8.854 9.747-11.182-5.972-3.06-10.026-5.625-14.203-7.397.383 2.698 1.167 4.759 2.082 7.938-7.48-4.964-15.81-8.885-29.883-10.413Z"/><path fill="#ebdccc" d="M120.454 3.369c9.392.231 2.51 28.604-1.926 34.582-4.437 5.98-3.143 16.048-5.12 16.646-2.675-3.12-2.675-9.81-2.712-15.685-2.873 1.292-7.9 2.804-12.314 1.546 1.087-2.97 2.47-7.42 3.587-10.994-1.82.708-5.912 1.673-10.792 2.279 4.374-8.823 19.885-28.605 29.277-28.374z"/><path fill="#313131" d="M122.135.521c-.486-.016-1.012.01-1.582.08-9.126 1.126-27.915 8.476-43.055 29.405 2.268 1.343 4.773 2.116 7.252 2.379a16.03 16.03 0 0 0 2.781-.143c1.23-.167 2.613-.346 4.063-.553 3.56-1.21 6.374-3.768 7.271-7.619 1.975-8.48 6.646-11.36 10.229-14.89 3.583-3.53 12.659-7.254 14.224-4.541 1.566 2.713.273 16.975-1.16 22.25-3.396 9.436-9.326 15.193-8.967 25.334.031.876.053 1.696.198 2.388.197.262.41.515.64.756 2.821 2.965 4.861-.683 6.168-4.092a62.125 62.125 0 0 0 1.242-3.603c3.747-12.05 5.835-27.31 6.004-34.117.083-3.332 1.975-12.792-5.308-13.034zm-51 60.676c.026-6.856 5.788-11.693 11.684-11.465 5.644.218 10.693 3.651 10.717 10.445.025 7.122-4.811 11.926-11.192 11.983-5.686.052-11.236-3.849-11.209-10.963z"/><path fill="#fff" d="M78.14 53.73c1.92-1.373 5.289-2.32 7.15-.012 1.863 2.308.68 5.624-2.15 7.035-2.892 1.44-6.012 1.614-7.215-.808-1.204-2.421.426-4.938 2.214-6.216zm6.428 11.342c1.939-1.014 3.265-2.703 4.518-1.387 1.372 1.442-.13 3.808-2.078 4.86-1.95 1.051-5.393 1.222-5.896-.53-.595-2.068 1.298-1.815 3.456-2.943z"/><path fill="none" stroke="#313131" stroke-linecap="round" stroke-width="4.403" d="M33.652 80.153c-1.845-3.806-1.872-7.545.528-10.056 2.4-2.51 7.012-5.058 9.466-12.65"/><path fill="#313131" d="M24.285 53.859c.026-6.856 5.788-11.692 11.684-11.464 5.643.218 10.692 3.65 10.716 10.445.026 7.121-4.81 11.925-11.19 11.983-5.687.051-11.237-3.85-11.21-10.964z"/><path fill="#fff" d="M31.29 46.392c1.92-1.373 5.289-2.32 7.15-.012 1.862 2.308.68 5.625-2.151 7.035-2.891 1.44-6.011 1.615-7.215-.807-1.203-2.422.427-4.938 2.215-6.216zm6.428 11.342c1.938-1.013 3.265-2.702 4.518-1.386 1.372 1.441-.13 3.808-2.079 4.86-1.949 1.05-5.392 1.221-5.896-.531-.594-2.068 1.3-1.814 3.457-2.943z"/><path fill="#313131" d="M40.35 72.473c3.611-1.97 14.548-2.67 17.07 2.576.404.839-6.115 7.144-10.106 7.135-3.86-.009-7.87-9.217-6.964-9.71z"/><path fill="none" stroke="#313131" stroke-linecap="round" stroke-linejoin="round" stroke-width="4.403" d="M30.33 85.466c2.073 6.375 4.02 10.402 5.96 12.94 3.75-3.13 8.538-7.475 10.436-9.373 2.962 4.819 7.017 10.375 8.672 12.646 4.859-3.873 9.518-7.996 11.435-10.163"/><g transform="translate(2.302 3.584)"><path fill="#fff" fill-opacity=".503" d="M33.987 94.823c.762-6.286-5.24-9.615-8.652-12.565-3.989-3.448-1.49-12.13.778-13.567-.039 2.963 5.077 9.472 10.709 10.444 5.398.932 19.309 2.835 21.82 15.404.634 3.167-9.078 4.292-12.347 4.356-3.268.064-12.845.366-12.308-4.072z"/><path fill="#fff" d="M45.392 122.744c-6.86.007-14.34-2.062-16.058-10.654-1.57-7.858-2.3-13.442 1.095-16.014 3.394-2.572 13.41-3.446 16.139-3.47 2.945-.024 12.438 1.044 14.901 4.184 2.417 3.081 2.942 8.373.873 16.359-2.079 8.026-9.481 9.34-16.95 9.595z"/><path fill="none" stroke="#fff" stroke-linecap="round" stroke-linejoin="round" stroke-width="3.7" d="M61.248 114.53c3.2.125 5.163-3.243 5.4-5.602.236-2.359-.656-6.164-3.285-6.37"/><ellipse cx="45.842" cy="99.574" fill="#502d16" rx="14.43" ry="4.81"/></g><path fill="#ff8702" stroke="#313131" stroke-linecap="round" stroke-width="4.2" d="M83.644 107.018c-8.048-.33-16.325-.93-16.351 6.73.123 4.657 3.107 7.762 6.236 12.564"/></svg>